PathFileType	4	(X/Y/Z)	output.trc
DataRate	CameraRate	NumFrames	NumMarkers	Units	OrigDataRate	OrigDataStartFrame	OrigNumFrames
30	30	16	17	m	30	409	1089
Frame#	Time	root		right_hip		right_knee		right_ankle		left_hip		left_knee		left_ankle		torso		thorax		neck		head		left_shoulder		left_elbow		left_wrist		right_shoulder		right_elbow		right_wrist
		X1	Y1	Z1	X2	Y2	Z2	X3	Y3	Z3	X4	Y4	Z4	X5	Y5	Z5	X6	Y6	Z6	X7	Y7	Z7	X8	Y8	Z8	X9	Y9	Z9	X10	Y10	Z10	X11	Y11	Z11	X12	Y12	Z12	X13	Y13	Z13	X14	Y14	Z14	X15	Y15	Z15	X16	Y16	Z16	X17	Y17	Z17

409.0	13.600000	0.000178	-0.000040	0.803062	0.037838	0.092871	0.784671	0.079039	0.100397	0.422763	-0.075467	0.202052	0.000000	-0.037815	-0.092860	0.821440	-0.077872	-0.054329	0.429871	-0.207946	0.002943	0.016433	0.015433	-0.005374	1.044802	0.055655	-0.000811	1.311255	0.209644	-0.021293	1.416032	0.217251	0.013792	1.464587	-0.021935	-0.084291	1.270250	-0.162895	-0.110536	1.018283	-0.211114	-0.122647	0.784583	0.086054	0.095278	1.259706	0.037996	0.181704	0.992848	0.085197	0.191432	0.771474
410.0	13.633333	0.000182	-0.000041	0.801554	0.038470	0.092729	0.782539	0.083604	0.107570	0.420465	-0.060057	0.220304	0.000000	-0.038447	-0.092718	0.820558	-0.093170	-0.043606	0.425035	-0.221674	0.011061	0.011602	0.014930	-0.007062	1.042630	0.054236	-0.002931	1.309659	0.210265	-0.019553	1.410307	0.217803	0.013114	1.459945	-0.019385	-0.086328	1.269228	-0.160264	-0.106306	1.019251	-0.215165	-0.116129	0.787631	0.080194	0.091534	1.262998	0.022505	0.177116	0.996870	0.075096	0.185801	0.770904
411.0	13.666667	0.000188	-0.000044	0.807966	0.036041	0.096075	0.789952	0.086840	0.113439	0.426440	-0.030276	0.224582	0.000000	-0.036013	-0.096062	0.825963	-0.095801	-0.042872	0.426724	-0.226693	0.006513	0.012053	0.015320	-0.007861	1.049052	0.058497	-0.004542	1.314999	0.218687	-0.022616	1.416158	0.226601	0.006621	1.464071	-0.015179	-0.093540	1.271434	-0.153693	-0.112995	1.024336	-0.213776	-0.113043	0.797134	0.083315	0.096138	1.274891	0.012450	0.192630	1.025288	0.070577	0.197187	0.792663
412.0	13.700000	0.000185	-0.000038	0.799673	0.037343	0.094083	0.782570	0.095204	0.103248	0.430243	0.017521	0.202340	0.000000	-0.037326	-0.094076	0.816780	-0.105183	-0.044683	0.417198	-0.240719	0.002119	0.007065	0.014533	0.002128	1.039531	0.052613	0.004564	1.302906	0.209223	-0.005418	1.398248	0.226620	0.020281	1.454764	-0.014222	-0.085784	1.261249	-0.146002	-0.116613	1.013673	-0.195596	-0.094455	0.785678	0.070461	0.108441	1.267423	-0.005188	0.236943	1.025963	0.074129	0.255876	0.898836
413.0	13.733333	0.000202	-0.000049	0.799507	0.036161	0.093007	0.780243	0.095569	0.120056	0.420524	0.051571	0.257535	0.000000	-0.036134	-0.092994	0.818756	-0.116897	-0.036959	0.415426	-0.258370	0.015689	0.003089	0.012561	-0.009326	1.039589	0.056673	-0.006983	1.306430	0.227086	-0.019017	1.402441	0.243239	0.005216	1.450331	-0.009838	-0.095545	1.263965	-0.145801	-0.120032	1.015288	-0.208494	-0.116118	0.785934	0.074461	0.090091	1.273571	0.000132	0.195262	1.025023	0.067711	0.186341	0.792480
414.0	13.766667	0.000205	-0.000050	0.793191	0.037885	0.092954	0.773625	0.108828	0.122769	0.416899	0.089989	0.271643	0.000000	-0.037860	-0.092942	0.812747	-0.129816	-0.036866	0.406553	-0.281281	0.023560	0.000094	0.012946	-0.010505	1.032197	0.058847	-0.009471	1.299741	0.228109	-0.018424	1.393173	0.247423	0.006970	1.444891	-0.004732	-0.096572	1.259905	-0.139754	-0.122111	1.012949	-0.201425	-0.115800	0.781342	0.073340	0.085730	1.265128	0.004103	0.189812	1.008560	0.071257	0.181398	0.786556
415.0	13.800000	0.000209	-0.000050	0.794010	0.039173	0.091497	0.773036	0.113861	0.130722	0.417811	0.116213	0.290506	0.008087	-0.039149	-0.091486	0.814974	-0.145323	-0.040969	0.406532	-0.305482	0.019128	0.000000	0.013290	-0.010135	1.034296	0.063111	-0.010980	1.300835	0.230409	-0.022463	1.390210	0.252502	0.002153	1.442834	-0.000196	-0.095270	1.265643	-0.132300	-0.114263	1.019099	-0.193529	-0.105936	0.785001	0.075584	0.080750	1.269517	0.006091	0.184975	1.012161	0.076538	0.181085	0.791266
416.0	13.833333	0.000213	-0.000052	0.787669	0.037278	0.093570	0.767064	0.121459	0.134467	0.414396	0.128881	0.298952	0.007631	-0.037250	-0.093557	0.808261	-0.151587	-0.041731	0.403123	-0.325029	0.021683	0.000000	0.012834	-0.011860	1.026442	0.063289	-0.012437	1.294993	0.229042	-0.021321	1.386498	0.249902	0.002907	1.438214	0.003346	-0.097993	1.256825	-0.125064	-0.119298	1.008357	-0.179321	-0.111085	0.771414	0.072364	0.077916	1.265165	0.007204	0.177522	1.000043	0.075951	0.174013	0.776810
417.0	13.866667	0.000208	-0.000050	0.790001	0.038767	0.092357	0.767781	0.119080	0.137795	0.414242	0.116990	0.305558	0.005775	-0.038741	-0.092345	0.812210	-0.163487	-0.040305	0.402448	-0.348929	0.021091	0.000000	0.011929	-0.012366	1.027907	0.059648	-0.013699	1.295714	0.220569	-0.022090	1.385960	0.239005	0.000075	1.438553	0.001740	-0.097064	1.259501	-0.121127	-0.118275	1.009028	-0.174409	-0.108542	0.769433	0.068491	0.075373	1.264867	0.009614	0.179848	1.001033	0.078490	0.180637	0.778836
418.0	13.900000	0.000205	-0.000050	0.787838	0.037105	0.094271	0.766446	0.121921	0.138845	0.418023	0.114625	0.289679	0.000000	-0.037081	-0.094260	0.809217	-0.166228	-0.039835	0.403648	-0.371211	0.018572	0.004310	0.012394	-0.011234	1.024516	0.060244	-0.013164	1.292440	0.216996	-0.020846	1.379182	0.230059	-0.000592	1.433575	0.003574	-0.098824	1.255435	-0.113669	-0.120885	1.002329	-0.162559	-0.114480	0.762526	0.068073	0.076129	1.263580	0.004145	0.172359	0.996560	0.073753	0.172874	0.775207
419.0	13.933333	0.000204	-0.000051	0.792165	0.036963	0.096198	0.770434	0.121736	0.135134	0.419326	0.099775	0.283536	0.000000	-0.036939	-0.096187	0.813881	-0.166809	-0.042994	0.405378	-0.389001	0.012173	0.012297	0.008630	-0.012207	1.028637	0.053391	-0.014610	1.297383	0.206567	-0.022137	1.386596	0.220957	-0.001039	1.442932	-0.002852	-0.099157	1.260711	-0.116160	-0.122031	1.006349	-0.159813	-0.115587	0.765593	0.062082	0.073698	1.265843	0.004594	0.163568	0.995667	0.069643	0.168295	0.780131
420.0	13.966667	0.000206	-0.000047	0.795674	0.035762	0.100359	0.777117	0.117888	0.129258	0.416861	0.087994	0.267917	0.000000	-0.035735	-0.100346	0.814215	-0.157328	-0.046044	0.401991	-0.409406	-0.005912	0.016387	0.004622	-0.009424	1.030996	0.045210	-0.007869	1.300852	0.197329	-0.011526	1.396527	0.205531	0.008290	1.446349	-0.007274	-0.101745	1.263816	-0.118803	-0.125484	1.008070	-0.158560	-0.106866	0.768523	0.050490	0.089472	1.271032	-0.020149	0.192000	1.014671	0.055509	0.211497	0.800630
421.0	14.000000	0.000210	-0.000045	0.800036	0.032796	0.103318	0.784480	0.103184	0.132450	0.418685	0.059800	0.267169	0.000000	-0.032766	-0.103303	0.815575	-0.146767	-0.041582	0.401866	-0.430960	-0.006345	0.029507	0.000392	-0.013597	1.035455	0.038638	-0.012522	1.306687	0.194608	-0.012170	1.399703	0.203833	0.006368	1.450409	-0.011856	-0.107791	1.275044	-0.120663	-0.129870	1.015880	-0.159451	-0.125170	0.773182	0.042980	0.085467	1.278562	-0.019941	0.179315	1.013426	0.053151	0.196317	0.799721
422.0	14.033333	0.000209	-0.000046	0.808431	0.033763	0.104779	0.794944	0.086718	0.120407	0.422842	0.037320	0.245357	0.000000	-0.033732	-0.104765	0.821901	-0.117583	-0.040453	0.403063	-0.443125	-0.003585	0.054043	-0.003476	-0.012226	1.042127	0.034563	-0.009259	1.314841	0.188557	-0.006149	1.409699	0.195004	0.015786	1.459851	-0.015832	-0.105018	1.285007	-0.124526	-0.124860	1.022307	-0.157549	-0.132791	0.774830	0.040495	0.085918	1.280491	-0.014392	0.165005	1.007062	0.049748	0.178740	0.794899
423.0	14.066667	0.000210	-0.000047	0.815157	0.031007	0.105717	0.805787	0.070932	0.112390	0.427296	0.015216	0.222715	0.000000	-0.030970	-0.105699	0.824510	-0.082219	-0.038717	0.409461	-0.442773	-0.000106	0.076315	-0.006681	-0.012840	1.048503	0.030583	-0.009572	1.322968	0.187347	-0.002378	1.418017	0.193242	0.021637	1.469991	-0.019059	-0.104549	1.295042	-0.125611	-0.118650	1.032880	-0.150068	-0.139327	0.781399	0.036512	0.083510	1.285180	-0.011401	0.155024	1.003948	0.045346	0.164111	0.791271
424.0	14.100000	0.000213	-0.000048	0.823168	0.026672	0.108517	0.817643	0.054846	0.103838	0.429748	-0.011344	0.203544	0.000000	-0.026630	-0.108496	0.828676	-0.045829	-0.032543	0.417803	-0.425167	0.008998	0.099261	-0.006192	-0.014974	1.058050	0.031798	-0.010255	1.333947	0.188795	-0.000705	1.436090	0.193012	0.025411	1.486092	-0.018033	-0.109451	1.307876	-0.129136	-0.125818	1.046238	-0.139558	-0.149188	0.790106	0.037119	0.086902	1.293264	-0.005757	0.162376	1.010338	0.042883	0.176757	0.802749
